<mxfile host="app.diagrams.net" modified="2023-07-11T23:02:25.547Z" agent="Mozilla/5.0 (Windows NT 10.0; Win64; x64) AppleWebKit/537.36 (KHTML, like Gecko) Chrome/114.0.0.0 Safari/537.36" etag="w0hi3LZr8zBQP7QKx_wO" version="21.6.2" type="github">
  <diagram name="Page-1" id="8zA1Y8aCRXmYHgJdUoUw">
    <mxGraphModel dx="1195" dy="657" grid="1" gridSize="10" guides="1" tooltips="1" connect="1" arrows="1" fold="1" page="1" pageScale="1" pageWidth="1100" pageHeight="1700" math="0" shadow="0">
      <root>
        <mxCell id="0" />
        <mxCell id="1" parent="0" />
        <mxCell id="1EBvca1nWh1dLmEHwAiq-1" value="&lt;b&gt;&lt;font style=&quot;font-size: 30px;&quot;&gt;&lt;font color=&quot;#0870bf&quot;&gt;Docker&lt;/font&gt; And Commands&lt;font color=&quot;#009900&quot;&gt;(Node.js)&lt;/font&gt;&lt;/font&gt;&lt;/b&gt;" style="text;html=1;strokeColor=none;fillColor=none;align=center;verticalAlign=middle;whiteSpace=wrap;rounded=0;" vertex="1" parent="1">
          <mxGeometry y="10" width="1100" height="30" as="geometry" />
        </mxCell>
        <mxCell id="1EBvca1nWh1dLmEHwAiq-2" value="&lt;b&gt;&lt;font style=&quot;font-size: 14px;&quot;&gt;STEP 1: Create a Server.&lt;/font&gt;&lt;/b&gt;" style="text;html=1;align=center;verticalAlign=middle;resizable=0;points=[];autosize=1;strokeColor=none;fillColor=none;" vertex="1" parent="1">
          <mxGeometry y="120" width="190" height="30" as="geometry" />
        </mxCell>
        <mxCell id="1EBvca1nWh1dLmEHwAiq-3" value="&lt;div style=&quot;text-align: left; font-size: 14px;&quot;&gt;&lt;b&gt;STEP 2: Create Required Docker File&lt;/b&gt;&lt;/div&gt;&lt;div style=&quot;text-align: left;&quot;&gt;&lt;ul&gt;&lt;li&gt;In the root directory, create an new file with name &quot;Dockerfile&quot; and &quot;.dockerignore&quot;&lt;/li&gt;&lt;li&gt;&lt;span style=&quot;background-color: initial;&quot;&gt;Command:&amp;nbsp;&lt;/span&gt;&lt;/li&gt;&lt;ul&gt;&lt;ul&gt;&lt;li&gt;&lt;span style=&quot;background-color: rgb(0, 0, 0);&quot;&gt;&lt;font color=&quot;#ffffff&quot;&gt;&lt;i&gt;touch Dockerfile&lt;/i&gt;&lt;/font&gt;&lt;/span&gt;&lt;/li&gt;&lt;li&gt;&lt;span style=&quot;background-color: rgb(0, 0, 0);&quot;&gt;&lt;font color=&quot;#ffffff&quot;&gt;&lt;i&gt;touch .dockerignore&lt;/i&gt;&lt;/font&gt;&lt;/span&gt;&lt;/li&gt;&lt;/ul&gt;&lt;/ul&gt;&lt;/ul&gt;&lt;/div&gt;" style="text;html=1;align=center;verticalAlign=middle;resizable=0;points=[];autosize=1;strokeColor=none;fillColor=none;" vertex="1" parent="1">
          <mxGeometry y="160" width="500" height="110" as="geometry" />
        </mxCell>
        <mxCell id="1EBvca1nWh1dLmEHwAiq-4" value="&lt;b&gt;&lt;font style=&quot;font-size: 14px; background-color: rgb(255, 255, 255);&quot;&gt;STEP 3: Write the following code in Dockerfile&lt;br&gt;&lt;br&gt;&lt;/font&gt;&lt;/b&gt;&lt;div style=&quot;color: rgb(197, 200, 198); font-family: Consolas, &amp;quot;Courier New&amp;quot;, monospace; line-height: 19px;&quot;&gt;&lt;div&gt;&lt;span style=&quot;background-color: rgb(255, 255, 255);&quot;&gt;FROM &lt;span style=&quot;color: #9b0000;&quot;&gt;node&lt;/span&gt;:&lt;span style=&quot;color: #9872a2;&quot;&gt;18&lt;/span&gt;&lt;/span&gt;&lt;/div&gt;&lt;span style=&quot;background-color: rgb(255, 255, 255);&quot;&gt;&lt;br&gt;&lt;/span&gt;&lt;div&gt;&lt;span style=&quot;color: rgb(154, 155, 153); background-color: rgb(255, 255, 255);&quot;&gt;# Create app directory&lt;/span&gt;&lt;/div&gt;&lt;div&gt;&lt;span style=&quot;background-color: rgb(255, 255, 255);&quot;&gt;&lt;span style=&quot;color: #9872a2;&quot;&gt;WORKDIR&lt;/span&gt; &lt;span style=&quot;color: #6089b4;&quot;&gt;/app&lt;/span&gt;&lt;/span&gt;&lt;/div&gt;&lt;span style=&quot;background-color: rgb(255, 255, 255);&quot;&gt;&lt;br&gt;&lt;/span&gt;&lt;div&gt;&lt;span style=&quot;color: rgb(154, 155, 153); background-color: rgb(255, 255, 255);&quot;&gt;# Install app dependencies&lt;/span&gt;&lt;/div&gt;&lt;div&gt;&lt;span style=&quot;color: rgb(154, 155, 153); background-color: rgb(255, 255, 255);&quot;&gt;# A wildcard is used to ensure both package.json&amp;nbsp;&lt;/span&gt;&lt;/div&gt;&lt;div&gt;&lt;span style=&quot;color: rgb(154, 155, 153); background-color: rgb(255, 255, 255);&quot;&gt;# AND package-lock.json are copied&lt;/span&gt;&lt;/div&gt;&lt;div&gt;&lt;span style=&quot;color: rgb(154, 155, 153); background-color: rgb(255, 255, 255);&quot;&gt;# where available (npm@5+)&lt;/span&gt;&lt;/div&gt;&lt;div&gt;&lt;span style=&quot;background-color: rgb(255, 255, 255);&quot;&gt;&lt;span style=&quot;color: #9872a2;&quot;&gt;COPY&lt;/span&gt; &lt;span style=&quot;color: #6089b4;&quot;&gt;package*.json&lt;/span&gt; &lt;span style=&quot;color: #6089b4;&quot;&gt;./&lt;/span&gt;&lt;/span&gt;&lt;/div&gt;&lt;span style=&quot;background-color: rgb(255, 255, 255);&quot;&gt;&lt;br&gt;&lt;/span&gt;&lt;div&gt;&lt;span style=&quot;background-color: rgb(255, 255, 255);&quot;&gt;&lt;span style=&quot;color: #9872a2;&quot;&gt;RUN&lt;/span&gt; &lt;span style=&quot;color: #6089b4;&quot;&gt;npm&lt;/span&gt; &lt;span style=&quot;color: #6089b4;&quot;&gt;install&lt;/span&gt;&lt;/span&gt;&lt;/div&gt;&lt;div&gt;&lt;span style=&quot;color: rgb(154, 155, 153); background-color: rgb(255, 255, 255);&quot;&gt;# If you are building your code for production&lt;/span&gt;&lt;/div&gt;&lt;div&gt;&lt;span style=&quot;color: rgb(154, 155, 153); background-color: rgb(255, 255, 255);&quot;&gt;# RUN npm ci --omit=dev&lt;/span&gt;&lt;/div&gt;&lt;span style=&quot;background-color: rgb(255, 255, 255);&quot;&gt;&lt;br&gt;&lt;/span&gt;&lt;div&gt;&lt;span style=&quot;color: rgb(154, 155, 153); background-color: rgb(255, 255, 255);&quot;&gt;# Bundle app source&lt;/span&gt;&lt;/div&gt;&lt;div&gt;&lt;span style=&quot;background-color: rgb(255, 255, 255);&quot;&gt;&lt;span style=&quot;color: #9872a2;&quot;&gt;COPY&lt;/span&gt; &lt;span style=&quot;color: #6089b4;&quot;&gt;.&lt;/span&gt; &lt;span style=&quot;color: #6089b4;&quot;&gt;.&lt;/span&gt;&lt;/span&gt;&lt;/div&gt;&lt;span style=&quot;background-color: rgb(255, 255, 255);&quot;&gt;&lt;br&gt;&lt;/span&gt;&lt;div&gt;&lt;span style=&quot;background-color: rgb(255, 255, 255);&quot;&gt;&lt;span style=&quot;color: #9872a2;&quot;&gt;EXPOSE&lt;/span&gt; &lt;span style=&quot;color: #6089b4;&quot;&gt;8000&lt;/span&gt;&lt;/span&gt;&lt;/div&gt;&lt;span style=&quot;background-color: rgb(255, 255, 255);&quot;&gt;&lt;br&gt;&lt;/span&gt;&lt;div&gt;&lt;span style=&quot;background-color: rgb(255, 255, 255);&quot;&gt;&lt;span style=&quot;color: rgb(152, 114, 162);&quot;&gt;CMD&lt;/span&gt; &lt;span style=&quot;color: rgb(96, 137, 180);&quot;&gt;[&lt;/span&gt; &lt;span style=&quot;color: rgb(154, 168, 58);&quot;&gt;&quot;npm&quot;&lt;/span&gt;&lt;span style=&quot;color: rgb(96, 137, 180);&quot;&gt;,&lt;/span&gt; &lt;span style=&quot;color: rgb(154, 168, 58);&quot;&gt;&quot;run&quot;&lt;/span&gt;&lt;span style=&quot;color: rgb(96, 137, 180);&quot;&gt;,&lt;/span&gt; &lt;span style=&quot;color: rgb(154, 168, 58);&quot;&gt;&quot;start&quot;&lt;/span&gt; &lt;span style=&quot;color: rgb(96, 137, 180);&quot;&gt;]&lt;/span&gt;&lt;/span&gt;&lt;/div&gt;&lt;/div&gt;&lt;b&gt;&lt;font style=&quot;font-size: 14px;&quot;&gt;&lt;br&gt;&lt;/font&gt;&lt;/b&gt;" style="text;html=1;align=left;verticalAlign=middle;resizable=0;points=[];autosize=1;strokeColor=none;fillColor=none;" vertex="1" parent="1">
          <mxGeometry x="10" y="245" width="350" height="460" as="geometry" />
        </mxCell>
        <mxCell id="1EBvca1nWh1dLmEHwAiq-6" value="&lt;b&gt;&lt;font style=&quot;font-size: 14px; background-color: rgb(255, 255, 255);&quot;&gt;STEP 4: Write the following code in .dockerignore&lt;br&gt;&lt;/font&gt;&lt;/b&gt;&lt;div style=&quot;font-family: Consolas, &amp;quot;Courier New&amp;quot;, monospace; line-height: 19px;&quot;&gt;&lt;div style=&quot;&quot;&gt;&lt;span style=&quot;background-color: rgb(255, 255, 255);&quot;&gt;&lt;font style=&quot;font-size: 12px;&quot; color=&quot;#999999&quot;&gt;node_modules&lt;/font&gt;&lt;/span&gt;&lt;/div&gt;&lt;div style=&quot;&quot;&gt;&lt;span style=&quot;background-color: rgb(255, 255, 255);&quot;&gt;&lt;font style=&quot;font-size: 12px;&quot; color=&quot;#999999&quot;&gt;npm-debug.log&lt;/font&gt;&lt;/span&gt;&lt;/div&gt;&lt;div style=&quot;&quot;&gt;&lt;span style=&quot;background-color: rgb(255, 255, 255);&quot;&gt;&lt;font style=&quot;font-size: 12px;&quot; color=&quot;#999999&quot;&gt;.env&lt;/font&gt;&lt;/span&gt;&lt;/div&gt;&lt;div style=&quot;&quot;&gt;&lt;span style=&quot;background-color: rgb(255, 255, 255);&quot;&gt;&lt;font style=&quot;font-size: 12px;&quot; color=&quot;#999999&quot;&gt;.git&lt;/font&gt;&lt;/span&gt;&lt;/div&gt;&lt;div style=&quot;&quot;&gt;&lt;span style=&quot;background-color: rgb(255, 255, 255);&quot;&gt;&lt;font style=&quot;font-size: 12px;&quot; color=&quot;#999999&quot;&gt;dist&lt;/font&gt;&lt;/span&gt;&lt;/div&gt;&lt;div style=&quot;&quot;&gt;&lt;span style=&quot;background-color: rgb(255, 255, 255);&quot;&gt;&lt;font style=&quot;font-size: 12px;&quot; color=&quot;#999999&quot;&gt;.aws&lt;/font&gt;&lt;/span&gt;&lt;/div&gt;&lt;div style=&quot;&quot;&gt;&lt;span style=&quot;background-color: rgb(255, 255, 255);&quot;&gt;&lt;font style=&quot;font-size: 12px;&quot; color=&quot;#999999&quot;&gt;.coverage&lt;/font&gt;&lt;/span&gt;&lt;/div&gt;&lt;/div&gt;&lt;b&gt;&lt;font style=&quot;font-size: 14px;&quot;&gt;&lt;br&gt;&lt;/font&gt;&lt;/b&gt;" style="text;html=1;align=left;verticalAlign=middle;resizable=0;points=[];autosize=1;strokeColor=none;fillColor=none;" vertex="1" parent="1">
          <mxGeometry x="10" y="720" width="350" height="180" as="geometry" />
        </mxCell>
        <mxCell id="1EBvca1nWh1dLmEHwAiq-7" value="" style="endArrow=none;html=1;rounded=0;" edge="1" parent="1">
          <mxGeometry width="50" height="50" relative="1" as="geometry">
            <mxPoint x="490" y="1200" as="sourcePoint" />
            <mxPoint x="490" y="120" as="targetPoint" />
          </mxGeometry>
        </mxCell>
      </root>
    </mxGraphModel>
  </diagram>
</mxfile>
